<svg width="178" height="178" viewBox="0 0 178 178" fill="none" xmlns="http://www.w3.org/2000/svg">
<path d="M39.694 45.924L44.5 66.394L39.694 86.775L57.583 97.811L68.53 115.7L89 110.894L109.47 115.7L120.417 97.811L138.306 86.775L133.5 66.394L138.306 45.924L120.506 34.888L109.47 16.999L89 21.894L68.619 17.088L57.494 34.888L39.694 45.924ZM89.089 102.35C79.6473 102.35 70.5923 98.5993 63.916 91.923C57.2397 85.2467 53.489 76.1917 53.489 66.75C53.489 57.3083 57.2397 48.2533 63.916 41.577C70.5923 34.9007 79.6473 31.15 89.089 31.15C108.669 31.15 124.6 47.081 124.6 66.661C124.6 86.419 108.669 102.35 89.089 102.35ZM88.911 93.45C74.137 93.45 62.3 81.524 62.3 66.75C62.3 52.065 74.137 40.05 88.911 40.05C103.685 40.05 115.7 52.065 115.7 66.75C115.7 81.524 103.685 93.45 88.911 93.45ZM123.087 103.24L111.695 123.176L93.183 118.993L115.7 170.88L128.16 151.3H150.41L123.087 103.24ZM54.557 103.863L65.682 123.888L84.639 119.349L62.3 170.88L49.84 151.3H27.59L54.557 103.863Z" fill="white"/>
</svg>
